<mxfile host="app.diagrams.net" modified="2022-05-17T13:32:42.996Z" agent="5.0 (Windows NT 10.0; Win64; x64) AppleWebKit/537.36 (KHTML, like Gecko) Chrome/101.0.4951.67 Safari/537.36" etag="LOedWGjrY4PA8LOofywd" version="18.0.3" type="github" pages="2">
  <diagram id="86pHDfzzVM6kU53vt71h" name="data-flow">
    <mxGraphModel dx="862" dy="481" grid="1" gridSize="10" guides="1" tooltips="1" connect="1" arrows="1" fold="1" page="1" pageScale="1" pageWidth="827" pageHeight="1169" math="0" shadow="0">
      <root>
        <mxCell id="0" />
        <mxCell id="1" parent="0" />
        <mxCell id="i4Ee7sgFwtZjf1qRSmYS-2" value="Producer Endpoint" style="rounded=0;whiteSpace=wrap;html=1;fontStyle=1" vertex="1" parent="1">
          <mxGeometry x="180" y="430" width="120" height="60" as="geometry" />
        </mxCell>
        <mxCell id="i4Ee7sgFwtZjf1qRSmYS-3" value="&lt;b&gt;Consumer Endpoint&lt;/b&gt;" style="rounded=0;whiteSpace=wrap;html=1;fontStyle=0" vertex="1" parent="1">
          <mxGeometry x="561" y="430" width="120" height="60" as="geometry" />
        </mxCell>
        <mxCell id="i4Ee7sgFwtZjf1qRSmYS-4" value="Processor A" style="rounded=0;whiteSpace=wrap;html=1;fontStyle=1;fillColor=#95e3fb;strokeColor=#95e3fb;" vertex="1" parent="1">
          <mxGeometry x="334" y="370" width="80" height="60" as="geometry" />
        </mxCell>
        <mxCell id="i4Ee7sgFwtZjf1qRSmYS-5" value="Processor B" style="rounded=0;whiteSpace=wrap;html=1;fontStyle=1;labelBackgroundColor=none;fillColor=#00a1db;strokeColor=#00a1db;" vertex="1" parent="1">
          <mxGeometry x="450" y="370" width="80" height="60" as="geometry" />
        </mxCell>
        <mxCell id="i4Ee7sgFwtZjf1qRSmYS-17" value="" style="endArrow=block;html=1;rounded=0;exitX=1;exitY=0.5;exitDx=0;exitDy=0;strokeColor=#00a1db;endFill=1;strokeWidth=2;" edge="1" parent="1" source="i4Ee7sgFwtZjf1qRSmYS-2">
          <mxGeometry width="50" height="50" relative="1" as="geometry">
            <mxPoint x="490" y="420" as="sourcePoint" />
            <mxPoint x="350" y="430" as="targetPoint" />
            <Array as="points">
              <mxPoint x="350" y="460" />
            </Array>
          </mxGeometry>
        </mxCell>
        <mxCell id="i4Ee7sgFwtZjf1qRSmYS-20" value="" style="endArrow=block;html=1;rounded=0;exitX=0.75;exitY=1;exitDx=0;exitDy=0;strokeColor=#00a1db;endFill=1;strokeWidth=2;" edge="1" parent="1">
          <mxGeometry width="50" height="50" relative="1" as="geometry">
            <mxPoint x="400" y="429" as="sourcePoint" />
            <mxPoint x="465" y="429" as="targetPoint" />
            <Array as="points">
              <mxPoint x="400" y="459" />
              <mxPoint x="465" y="459" />
            </Array>
          </mxGeometry>
        </mxCell>
        <mxCell id="i4Ee7sgFwtZjf1qRSmYS-23" value="" style="endArrow=block;html=1;rounded=0;exitX=0.75;exitY=1;exitDx=0;exitDy=0;strokeColor=#00a1db;endFill=1;strokeWidth=2;entryX=0;entryY=0.5;entryDx=0;entryDy=0;" edge="1" parent="1" target="i4Ee7sgFwtZjf1qRSmYS-3">
          <mxGeometry width="50" height="50" relative="1" as="geometry">
            <mxPoint x="515" y="430" as="sourcePoint" />
            <mxPoint x="522" y="570" as="targetPoint" />
            <Array as="points">
              <mxPoint x="515" y="460" />
            </Array>
          </mxGeometry>
        </mxCell>
      </root>
    </mxGraphModel>
  </diagram>
  <diagram id="sAOyWAKLZjaCzvenYovn" name="interceptor-data-flow">
    <mxGraphModel dx="1422" dy="794" grid="1" gridSize="10" guides="1" tooltips="1" connect="1" arrows="1" fold="1" page="1" pageScale="1" pageWidth="827" pageHeight="1169" math="0" shadow="0">
      <root>
        <mxCell id="0" />
        <mxCell id="1" parent="0" />
        <mxCell id="tOV6YuA7zCe-FPHdOBtk-1" value="Producer Endpoint" style="rounded=0;whiteSpace=wrap;html=1;fontStyle=1" vertex="1" parent="1">
          <mxGeometry x="80" y="430" width="120" height="60" as="geometry" />
        </mxCell>
        <mxCell id="tOV6YuA7zCe-FPHdOBtk-2" value="&lt;b&gt;Consumer Endpoint&lt;/b&gt;" style="rounded=0;whiteSpace=wrap;html=1;fontStyle=0" vertex="1" parent="1">
          <mxGeometry x="761" y="430" width="120" height="60" as="geometry" />
        </mxCell>
        <mxCell id="tOV6YuA7zCe-FPHdOBtk-3" value="Processor A" style="rounded=0;whiteSpace=wrap;html=1;fontStyle=1;fillColor=#95e3fb;strokeColor=#95e3fb;" vertex="1" parent="1">
          <mxGeometry x="334" y="370" width="80" height="60" as="geometry" />
        </mxCell>
        <mxCell id="tOV6YuA7zCe-FPHdOBtk-4" value="Processor B" style="rounded=0;whiteSpace=wrap;html=1;fontStyle=1;labelBackgroundColor=none;fillColor=#00a1db;strokeColor=#00a1db;" vertex="1" parent="1">
          <mxGeometry x="544" y="370" width="80" height="60" as="geometry" />
        </mxCell>
        <mxCell id="tOV6YuA7zCe-FPHdOBtk-5" value="Policy Engine&lt;br&gt;PEP" style="rounded=0;whiteSpace=wrap;html=1;fontStyle=1" vertex="1" parent="1">
          <mxGeometry x="220" y="370" width="100" height="60" as="geometry" />
        </mxCell>
        <mxCell id="tOV6YuA7zCe-FPHdOBtk-6" value="&lt;font face=&quot;Verdana&quot; style=&quot;font-size: 18px&quot; color=&quot;#ffffff&quot;&gt;&lt;b&gt;PEP&lt;/b&gt;&lt;/font&gt;" style="rounded=1;whiteSpace=wrap;html=1;fillColor=#E2001A;strokeColor=#E2001A;spacing=2;" vertex="1" parent="1">
          <mxGeometry x="239" y="402.5" width="60" height="26" as="geometry" />
        </mxCell>
        <mxCell id="tOV6YuA7zCe-FPHdOBtk-7" value="Policy Engine&lt;br&gt;PEP" style="rounded=0;whiteSpace=wrap;html=1;fontStyle=1" vertex="1" parent="1">
          <mxGeometry x="429" y="370" width="100" height="60" as="geometry" />
        </mxCell>
        <mxCell id="tOV6YuA7zCe-FPHdOBtk-8" value="Policy Engine&lt;br&gt;PEP" style="rounded=0;whiteSpace=wrap;html=1;fontStyle=1" vertex="1" parent="1">
          <mxGeometry x="640" y="370" width="100" height="60" as="geometry" />
        </mxCell>
        <mxCell id="tOV6YuA7zCe-FPHdOBtk-9" value="" style="endArrow=block;html=1;rounded=0;exitX=1;exitY=0.5;exitDx=0;exitDy=0;strokeColor=#00a1db;endFill=1;strokeWidth=2;" edge="1" parent="1" source="tOV6YuA7zCe-FPHdOBtk-1">
          <mxGeometry width="50" height="50" relative="1" as="geometry">
            <mxPoint x="390" y="420" as="sourcePoint" />
            <mxPoint x="250" y="430" as="targetPoint" />
            <Array as="points">
              <mxPoint x="250" y="460" />
            </Array>
          </mxGeometry>
        </mxCell>
        <mxCell id="tOV6YuA7zCe-FPHdOBtk-10" value="" style="endArrow=block;html=1;rounded=0;exitX=0.75;exitY=1;exitDx=0;exitDy=0;strokeColor=#00a1db;endFill=1;strokeWidth=2;" edge="1" parent="1" source="tOV6YuA7zCe-FPHdOBtk-5">
          <mxGeometry width="50" height="50" relative="1" as="geometry">
            <mxPoint x="310" y="460" as="sourcePoint" />
            <mxPoint x="360" y="430" as="targetPoint" />
            <Array as="points">
              <mxPoint x="295" y="460" />
              <mxPoint x="360" y="460" />
            </Array>
          </mxGeometry>
        </mxCell>
        <mxCell id="tOV6YuA7zCe-FPHdOBtk-11" value="" style="endArrow=block;html=1;rounded=0;exitX=0.75;exitY=1;exitDx=0;exitDy=0;strokeColor=#00a1db;endFill=1;strokeWidth=2;" edge="1" parent="1">
          <mxGeometry width="50" height="50" relative="1" as="geometry">
            <mxPoint x="400" y="429" as="sourcePoint" />
            <mxPoint x="465" y="429" as="targetPoint" />
            <Array as="points">
              <mxPoint x="400" y="459" />
              <mxPoint x="465" y="459" />
            </Array>
          </mxGeometry>
        </mxCell>
        <mxCell id="tOV6YuA7zCe-FPHdOBtk-12" value="" style="endArrow=block;html=1;rounded=0;exitX=0.75;exitY=1;exitDx=0;exitDy=0;strokeColor=#00a1db;endFill=1;strokeWidth=2;" edge="1" parent="1">
          <mxGeometry width="50" height="50" relative="1" as="geometry">
            <mxPoint x="500" y="429" as="sourcePoint" />
            <mxPoint x="565" y="429" as="targetPoint" />
            <Array as="points">
              <mxPoint x="500" y="459" />
              <mxPoint x="565" y="459" />
            </Array>
          </mxGeometry>
        </mxCell>
        <mxCell id="tOV6YuA7zCe-FPHdOBtk-13" value="" style="endArrow=block;html=1;rounded=0;exitX=0.75;exitY=1;exitDx=0;exitDy=0;strokeColor=#00a1db;endFill=1;strokeWidth=2;" edge="1" parent="1">
          <mxGeometry width="50" height="50" relative="1" as="geometry">
            <mxPoint x="610" y="430" as="sourcePoint" />
            <mxPoint x="675" y="430" as="targetPoint" />
            <Array as="points">
              <mxPoint x="610" y="460" />
              <mxPoint x="675" y="460" />
            </Array>
          </mxGeometry>
        </mxCell>
        <mxCell id="tOV6YuA7zCe-FPHdOBtk-14" value="" style="endArrow=block;html=1;rounded=0;exitX=0.75;exitY=1;exitDx=0;exitDy=0;strokeColor=#00a1db;endFill=1;strokeWidth=2;entryX=0;entryY=0.5;entryDx=0;entryDy=0;" edge="1" parent="1" source="tOV6YuA7zCe-FPHdOBtk-8" target="tOV6YuA7zCe-FPHdOBtk-2">
          <mxGeometry width="50" height="50" relative="1" as="geometry">
            <mxPoint x="672" y="600" as="sourcePoint" />
            <mxPoint x="722" y="570" as="targetPoint" />
            <Array as="points">
              <mxPoint x="715" y="460" />
            </Array>
          </mxGeometry>
        </mxCell>
        <mxCell id="tOV6YuA7zCe-FPHdOBtk-15" value="&lt;font face=&quot;Verdana&quot; style=&quot;font-size: 18px&quot; color=&quot;#ffffff&quot;&gt;&lt;b&gt;PEP&lt;/b&gt;&lt;/font&gt;" style="rounded=1;whiteSpace=wrap;html=1;fillColor=#E2001A;strokeColor=#E2001A;spacing=2;" vertex="1" parent="1">
          <mxGeometry x="450" y="402.5" width="60" height="26" as="geometry" />
        </mxCell>
        <mxCell id="tOV6YuA7zCe-FPHdOBtk-16" value="&lt;font face=&quot;Verdana&quot; style=&quot;font-size: 18px&quot; color=&quot;#ffffff&quot;&gt;&lt;b&gt;PEP&lt;/b&gt;&lt;/font&gt;" style="rounded=1;whiteSpace=wrap;html=1;fillColor=#E2001A;strokeColor=#E2001A;spacing=2;" vertex="1" parent="1">
          <mxGeometry x="660" y="402.5" width="60" height="26" as="geometry" />
        </mxCell>
      </root>
    </mxGraphModel>
  </diagram>
</mxfile>
